<svg width="94" height="54" viewBox="0 0 94 54" fill="none" xmlns="http://www.w3.org/2000/svg">
<g clip-path="url(#clip0_460_0)">
<path fill-rule="evenodd" clip-rule="evenodd" d="M33.1492 3.30615C18.6229 3.30615 13.3098 6.86634 13.3098 16.5998V37.4003C13.3098 47.1337 18.6229 50.6939 33.1492 50.6939H64.1688C78.6947 50.6939 84.0177 47.1337 84.0177 37.4003V16.5998C84.0177 6.86634 78.7046 3.30615 64.1782 3.30615H33.1492Z" fill="#2468BE"/>
<path d="M24.1323 41.0408V33.9499H26.0389V35.1871H26.1127C26.242 34.747 26.459 34.4146 26.7637 34.19C27.0684 33.9622 27.4192 33.8484 27.8162 33.8484C27.9147 33.8484 28.0209 33.8545 28.1348 33.8668C28.2486 33.8791 28.3487 33.8961 28.4348 33.9176V35.6626C28.3425 35.6349 28.2148 35.6103 28.0517 35.5888C27.8885 35.5672 27.7393 35.5565 27.6039 35.5565C27.3146 35.5565 27.056 35.6195 26.8283 35.7457C26.6036 35.8688 26.4251 36.0412 26.2928 36.2628C26.1635 36.4844 26.0989 36.7398 26.0989 37.0291V41.0408H24.1323ZM31.2705 41.1747C30.8181 41.1747 30.4149 41.0962 30.061 40.9393C29.7071 40.7792 29.427 40.5438 29.2208 40.2329C29.0177 39.919 28.9161 39.5282 28.9161 39.0604C28.9161 38.6664 28.9884 38.3356 29.1331 38.0678C29.2777 37.8001 29.4747 37.5846 29.724 37.4215C29.9733 37.2584 30.2564 37.1353 30.5734 37.0522C30.8935 36.9691 31.229 36.9106 31.5798 36.8768C31.9922 36.8337 32.3246 36.7937 32.577 36.7567C32.8293 36.7167 33.0125 36.6583 33.1263 36.5813C33.2402 36.5044 33.2971 36.3905 33.2971 36.2397V36.212C33.2971 35.9196 33.2048 35.6934 33.0201 35.5334C32.8386 35.3733 32.58 35.2933 32.2446 35.2933C31.8906 35.2933 31.609 35.3718 31.3998 35.5288C31.1905 35.6826 31.052 35.8765 30.9843 36.1104L29.1654 35.9627C29.2577 35.5318 29.4393 35.1594 29.7101 34.8455C29.981 34.5285 30.3303 34.2854 30.7581 34.1161C31.1889 33.9438 31.6875 33.8576 32.2538 33.8576C32.6478 33.8576 33.0248 33.9038 33.3848 33.9961C33.748 34.0884 34.0696 34.2315 34.3497 34.4254C34.6328 34.6193 34.856 34.8686 35.0191 35.1733C35.1822 35.4749 35.2638 35.8365 35.2638 36.2582V41.0408H33.3987V40.0575H33.3433C33.2294 40.2791 33.0771 40.4745 32.8863 40.6438C32.6955 40.81 32.4662 40.9408 32.1984 41.0362C31.9307 41.1285 31.6214 41.1747 31.2705 41.1747ZM31.8337 39.8175C32.123 39.8175 32.3785 39.7605 32.6 39.6467C32.8216 39.5297 32.9955 39.3727 33.1217 39.1758C33.2479 38.9788 33.311 38.7557 33.311 38.5064V37.7539C33.2494 37.7939 33.1648 37.8308 33.0571 37.8647C32.9524 37.8955 32.8339 37.9247 32.7016 37.9524C32.5693 37.977 32.4369 38.0001 32.3046 38.0217C32.1723 38.0401 32.0522 38.057 31.9445 38.0724C31.7137 38.1063 31.5121 38.1602 31.3397 38.234C31.1674 38.3079 31.0335 38.4079 30.9381 38.5341C30.8427 38.6572 30.795 38.8111 30.795 38.9957C30.795 39.2635 30.892 39.4682 31.0858 39.6097C31.2828 39.7482 31.5321 39.8175 31.8337 39.8175ZM37.7497 43.6999C37.5004 43.6999 37.2665 43.6799 37.048 43.6399C36.8326 43.603 36.6541 43.5553 36.5125 43.4968L36.9557 42.0288C37.1865 42.0995 37.3943 42.138 37.5789 42.1442C37.7667 42.1503 37.9282 42.1072 38.0636 42.0149C38.2021 41.9226 38.3145 41.7656 38.4007 41.544L38.5161 41.244L35.9724 33.9499H38.0406L39.5086 39.1573H39.5825L41.0644 33.9499H43.1464L40.3904 41.8072C40.258 42.1888 40.078 42.5212 39.8502 42.8043C39.6256 43.0905 39.3409 43.3106 38.9962 43.4645C38.6515 43.6214 38.236 43.6999 37.7497 43.6999ZM44.1897 41.0408V31.5863H50.4497V33.2344H46.1886V35.4872H50.0342V37.1353H46.1886V41.0408H44.1897ZM54.4406 41.1793C53.7235 41.1793 53.1034 41.027 52.5802 40.7223C52.06 40.4145 51.6584 39.9867 51.3753 39.4389C51.0921 38.888 50.9505 38.2494 50.9505 37.5231C50.9505 36.7906 51.0921 36.1504 51.3753 35.6026C51.6584 35.0517 52.06 34.6239 52.5802 34.3192C53.1034 34.0115 53.7235 33.8576 54.4406 33.8576C55.1577 33.8576 55.7763 34.0115 56.2964 34.3192C56.8196 34.6239 57.2228 35.0517 57.5059 35.6026C57.7891 36.1504 57.9307 36.7906 57.9307 37.5231C57.9307 38.2494 57.7891 38.888 57.5059 39.4389C57.2228 39.9867 56.8196 40.4145 56.2964 40.7223C55.7763 41.027 55.1577 41.1793 54.4406 41.1793ZM54.4498 39.6559C54.7761 39.6559 55.0484 39.5636 55.267 39.3789C55.4855 39.1912 55.6501 38.9357 55.7609 38.6126C55.8748 38.2894 55.9317 37.9216 55.9317 37.5092C55.9317 37.0968 55.8748 36.729 55.7609 36.4059C55.6501 36.0827 55.4855 35.8273 55.267 35.6396C55.0484 35.4518 54.7761 35.3579 54.4498 35.3579C54.1205 35.3579 53.8435 35.4518 53.6189 35.6396C53.3973 35.8273 53.2295 36.0827 53.1157 36.4059C53.0049 36.729 52.9495 37.0968 52.9495 37.5092C52.9495 37.9216 53.0049 38.2894 53.1157 38.6126C53.2295 38.9357 53.3973 39.1912 53.6189 39.3789C53.8435 39.5636 54.1205 39.6559 54.4498 39.6559ZM59.2094 41.0408V33.9499H61.116V35.1871H61.1899C61.3192 34.747 61.5361 34.4146 61.8408 34.19C62.1455 33.9622 62.4964 33.8484 62.8934 33.8484C62.9919 33.8484 63.098 33.8545 63.2119 33.8668C63.3258 33.8791 63.4258 33.8961 63.512 33.9176V35.6626C63.4197 35.6349 63.2919 35.6103 63.1288 35.5888C62.9657 35.5672 62.8164 35.5565 62.681 35.5565C62.3917 35.5565 62.1332 35.6195 61.9054 35.7457C61.6808 35.8688 61.5023 36.0412 61.3699 36.2628C61.2407 36.4844 61.176 36.7398 61.176 37.0291V41.0408H59.2094ZM64.5288 41.0408V33.9499H66.403V35.201H66.4861C66.6339 34.7855 66.8801 34.4577 67.2248 34.2177C67.5695 33.9776 67.9819 33.8576 68.462 33.8576C68.9483 33.8576 69.3622 33.9792 69.7038 34.2223C70.0454 34.4624 70.2732 34.7886 70.3871 35.201H70.4609C70.6056 34.7947 70.8672 34.47 71.2457 34.2269C71.6274 33.9807 72.0782 33.8576 72.5984 33.8576C73.2601 33.8576 73.7971 34.0684 74.2095 34.4901C74.625 34.9086 74.8327 35.5026 74.8327 36.272V41.0408H72.8707V36.6598C72.8707 36.2659 72.7661 35.9704 72.5568 35.7734C72.3475 35.5765 72.0859 35.478 71.772 35.478C71.415 35.478 71.1365 35.5919 70.9364 35.8196C70.7364 36.0443 70.6364 36.3413 70.6364 36.7106V41.0408H68.7298V36.6182C68.7298 36.2705 68.6297 35.9935 68.4297 35.7873C68.2327 35.5811 67.9727 35.478 67.6495 35.478C67.431 35.478 67.234 35.5334 67.0586 35.6442C66.8862 35.7519 66.7493 35.9042 66.6477 36.1012C66.5462 36.2951 66.4954 36.5228 66.4954 36.7844V41.0408H64.5288Z" fill="white"/>
<path d="M54.7604 7.96765C46.474 8.41669 43.972 14.7493 43.7601 17.9891C43.7601 18.5221 41.6706 17.4432 42.9134 12.7917C43.02 12.3929 42.9134 11.9167 42.9134 11.9167C38.5982 15.0259 38.9692 20.9046 44.2741 23.2946C48.3864 25.1473 53.7323 23.9683 56.0969 20.5155C58.8727 16.5575 56.4053 8.72558 54.7604 7.96765Z" fill="white"/>
</g>
<defs>
<clipPath id="clip0_460_0">
<rect width="94" height="54" fill="white"/>
</clipPath>
</defs>
</svg>
